<?xml version="1.0" standalone="no"?>
<!DOCTYPE svg PUBLIC "-//W3C//DTD SVG 20010904//EN"
 "http://www.w3.org/TR/2001/REC-SVG-20010904/DTD/svg10.dtd">
<svg version="1.0" xmlns="http://www.w3.org/2000/svg"
 width="400.000000pt" height="150.000000pt" viewBox="0 0 400.000000 150.000000"
 preserveAspectRatio="xMidYMid meet">

<g transform="translate(0.000000,150.000000) scale(0.100000,-0.100000)"
fill="currentColor" stroke="none">
<path d="M327 1172 c-15 -17 -17 -62 -17 -439 0 -394 1 -421 18 -436 17 -15
57 -17 364 -17 321 0 346 1 361 18 15 17 17 62 17 439 0 394 -1 421 -18 436
-17 15 -57 17 -364 17 -321 0 -346 -1 -361 -18z m384 -118 c9 -11 10 -20 2
-32 -9 -15 -31 -17 -158 -17 -127 0 -149 2 -158 17 -8 12 -7 21 2 32 20 24
292 24 312 0z m270 -150 c9 -11 10 -20 2 -32 -9 -15 -40 -17 -293 -17 -253 0
-284 2 -293 17 -8 12 -7 21 2 32 12 14 50 16 291 16 241 0 279 -2 291 -16z m0
-150 c9 -11 10 -20 2 -32 -9 -15 -40 -17 -293 -17 -253 0 -284 2 -293 17 -8
12 -7 21 2 32 12 14 50 16 291 16 241 0 279 -2 291 -16z m0 -150 c9 -11 10
-20 2 -32 -9 -15 -40 -17 -293 -17 -253 0 -284 2 -293 17 -8 12 -7 21 2 32 12
14 50 16 291 16 241 0 279 -2 291 -16z m-150 -150 c9 -11 10 -20 2 -32 -9 -15
-35 -17 -218 -17 -183 0 -209 2 -218 17 -8 12 -7 21 2 32 20 24 412 24 432 0z"/>
<path d="M1450 895 c0 -98 1 -105 20 -105 16 0 20 7 20 35 0 33 2 35 35 35 41
0 85 36 85 70 0 12 -11 32 -25 45 -20 21 -34 25 -80 25 l-55 0 0 -105z m105
45 c9 -28 -2 -40 -36 -40 -26 0 -29 3 -29 30 0 27 3 30 29 30 21 0 32 -6 36
-20z"/>
<path d="M1659 971 c-24 -24 -29 -38 -29 -76 0 -38 5 -52 29 -76 20 -20 39
-29 61 -29 22 0 41 9 61 29 24 24 29 38 29 76 0 38 -5 52 -29 76 -40 39 -82
39 -122 0z m91 -30 c23 -44 5 -111 -30 -111 -23 0 -40 28 -40 65 0 37 17 65
40 65 11 0 24 -9 30 -19z"/>
<path d="M1873 990 c-28 -11 -40 -54 -22 -76 8 -9 33 -25 57 -35 25 -11 42
-24 40 -32 -7 -19 -38 -20 -58 -2 -10 9 -28 15 -39 13 -18 -3 -19 -6 -8 -28
25 -51 136 -49 153 2 8 28 -24 69 -66 83 -19 6 -36 17 -38 23 -6 18 27 26 52
12 13 -6 32 -10 42 -8 17 3 16 6 -8 31 -28 28 -63 34 -105 17z"/>
<path d="M2020 980 c0 -16 7 -20 30 -20 l30 0 0 -85 c0 -84 0 -85 25 -85 25 0
25 1 25 85 l0 85 30 0 c23 0 30 4 30 20 0 18 -7 20 -85 20 -78 0 -85 -2 -85
-20z"/>
<path d="M2299 971 c-22 -23 -29 -39 -29 -70 0 -72 33 -111 94 -111 28 0 76
35 76 56 0 19 -46 18 -54 -1 -7 -18 -37 -20 -54 -3 -7 7 -12 30 -12 53 0 23 5
46 12 53 17 17 47 15 54 -3 8 -19 54 -20 54 -1 0 22 -49 56 -82 56 -19 0 -40
-10 -59 -29z"/>
<path d="M2470 895 c0 -98 1 -105 20 -105 16 0 20 7 20 35 0 27 4 35 18 35 11
0 25 -14 35 -35 13 -26 23 -35 42 -35 l25 0 -20 40 c-19 37 -19 42 -5 56 8 9
15 31 15 49 0 46 -29 65 -97 65 l-53 0 0 -105z m100 50 c17 -20 -3 -45 -36
-45 -20 0 -24 5 -24 30 0 25 4 30 24 30 13 0 29 -7 36 -15z"/>
<path d="M2660 895 l0 -105 70 0 c63 0 70 2 70 20 0 17 -7 20 -50 20 -47 0
-50 2 -50 25 0 23 4 25 40 25 33 0 40 3 40 20 0 17 -7 20 -40 20 -33 0 -40 3
-40 20 0 17 7 20 50 20 43 0 50 3 50 20 0 18 -7 20 -70 20 l-70 0 0 -105z"/>
<path d="M2872 973 c-28 -70 -62 -166 -62 -174 0 -19 48 -9 53 11 4 15 14 20
40 20 27 0 37 -5 42 -20 4 -13 15 -20 32 -20 16 0 23 5 21 13 -3 6 -20 54 -38
105 -28 79 -36 92 -55 92 -15 0 -26 -9 -33 -27z m48 -85 c0 -11 -8 -18 -19
-18 -18 0 -19 3 -9 31 8 23 13 27 19 17 5 -7 9 -21 9 -30z"/>
<path d="M3000 980 c0 -16 7 -20 30 -20 l30 0 0 -85 c0 -84 0 -85 25 -85 25 0
25 1 25 85 l0 85 30 0 c23 0 30 4 30 20 0 18 -7 20 -85 20 -78 0 -85 -2 -85
-20z"/>
<path d="M3209 971 c-24 -24 -29 -38 -29 -76 0 -38 5 -52 29 -76 20 -20 39
-29 61 -29 22 0 41 9 61 29 24 24 29 38 29 76 0 38 -5 52 -29 76 -40 39 -82
39 -122 0z m91 -30 c23 -44 5 -111 -30 -111 -23 0 -40 28 -40 65 0 37 17 65
40 65 11 0 24 -9 30 -19z"/>
<path d="M3390 895 c0 -98 1 -105 20 -105 16 0 20 7 20 35 0 27 4 35 18 35 11
0 25 -14 35 -35 13 -26 23 -35 42 -35 l25 0 -20 40 c-19 37 -19 42 -5 56 8 9
15 31 15 49 0 46 -29 65 -97 65 l-53 0 0 -105z m100 50 c17 -20 -3 -45 -36
-45 -20 0 -24 5 -24 30 0 25 4 30 24 30 13 0 29 -7 36 -15z"/>
<path d="M1310 735 c-10 -12 -10 -18 0 -30 11 -13 155 -15 1185 -15 1030 0
1174 2 1185 15 10 12 10 18 0 30 -11 13 -155 15 -1185 15 -1030 0 -1174 -2
-1185 -15z"/>
<path d="M2639 633 c-1 -5 0 -23 1 -40 1 -29 -2 -33 -22 -33 -31 0 -48 -18
-48 -50 0 -38 18 -50 78 -50 49 0 52 1 38 16 -12 11 -16 36 -16 90 0 59 -3 74
-15 74 -8 0 -15 -3 -16 -7z m-4 -124 c0 -24 -5 -34 -15 -34 -16 0 -25 37 -16
62 10 26 31 8 31 -28z"/>
<path d="M1697 603 c-10 -19 -13 -47 -9 -85 4 -48 8 -58 23 -58 16 0 19 8 19
45 0 25 5 45 10 45 6 0 10 7 10 15 0 8 -4 15 -10 15 -5 0 -10 5 -10 10 0 6 7
10 15 10 8 0 15 7 15 15 0 27 -48 18 -63 -12z"/>
<path d="M2068 618 c5 -7 20 -46 32 -86 12 -40 25 -70 29 -67 3 4 13 27 22 53
l16 47 17 -53 c10 -30 22 -50 26 -45 4 4 18 40 30 78 13 39 28 73 34 77 6 5 1
8 -11 8 -13 0 -22 -3 -21 -7 3 -14 -14 -83 -22 -88 -4 -3 -13 16 -20 40 -17
62 -27 64 -41 10 -6 -25 -15 -47 -19 -50 -9 -6 -31 75 -24 87 3 4 -9 8 -27 8
-24 0 -29 -3 -21 -12z"/>
<path d="M2741 609 c15 -29 7 -128 -12 -140 -9 -6 3 -9 36 -9 39 1 46 3 33 11
-11 6 -18 22 -18 39 0 27 3 30 33 30 38 0 57 15 57 45 0 34 -20 45 -82 45 -57
0 -58 -1 -47 -21z m84 -24 c0 -23 -5 -31 -22 -33 -20 -3 -23 1 -23 33 0 32 3
36 23 33 17 -2 22 -10 22 -33z"/>
<path d="M1776 561 c-25 -28 -17 -72 17 -91 24 -13 30 -13 55 0 37 21 43 71
10 94 -30 21 -61 20 -82 -3z m59 -41 c0 -13 -6 -25 -12 -27 -16 -6 -27 21 -19
43 9 23 31 11 31 -16z"/>
<path d="M1900 519 c0 -52 2 -59 20 -59 17 0 20 7 20 45 0 38 3 45 20 45 11 0
20 6 20 14 0 9 -13 14 -40 14 l-40 1 0 -60z"/>
<path d="M2305 540 c-15 -16 -17 -26 -9 -48 13 -36 71 -43 99 -12 18 20 18 24
4 48 -19 35 -67 42 -94 12z m60 -30 c0 -39 -19 -50 -35 -21 -8 15 -8 27 0 42
16 29 35 18 35 -21z"/>
<path d="M2449 547 c15 -15 14 -74 -1 -80 -7 -3 5 -6 27 -6 30 -1 36 2 27 11
-15 15 -16 55 -2 63 6 4 17 2 25 -5 9 -7 15 -8 20 0 12 19 -5 28 -56 28 -39 1
-49 -2 -40 -11z"/>
<path d="M2906 541 c15 -37 15 -49 -1 -65 -15 -15 -13 -16 27 -15 24 0 37 3
31 6 -15 5 -18 73 -4 73 6 0 13 -4 16 -10 10 -17 25 -11 25 9 0 16 -8 19 -51
19 -43 0 -49 -3 -43 -17z"/>
<path d="M3036 544 c-34 -34 -11 -84 39 -84 18 0 36 4 39 9 3 4 -5 6 -18 4
-17 -4 -27 1 -35 15 -13 24 -6 32 31 32 30 0 35 9 16 28 -17 17 -54 15 -72 -4z
m54 -4 c0 -5 -7 -10 -16 -10 -8 0 -12 5 -9 10 3 6 10 10 16 10 5 0 9 -4 9 -10z"/>
<path d="M3157 553 c-16 -15 -6 -44 18 -53 14 -5 25 -14 25 -20 0 -17 -38 -11
-49 8 -9 15 -10 15 -11 -5 0 -20 5 -23 39 -23 48 0 63 26 31 52 -11 9 -26 18
-33 21 -6 2 -8 8 -4 13 4 4 17 3 27 -4 17 -10 20 -10 20 3 0 15 -50 22 -63 8z"/>
<path d="M3253 544 c-4 -12 5 -26 28 -45 29 -24 31 -29 14 -29 -12 0 -26 5
-33 12 -9 9 -12 8 -12 -6 0 -14 7 -17 38 -14 47 4 58 38 17 56 -14 6 -25 16
-25 22 0 14 27 12 33 -2 3 -8 6 -6 6 5 1 23 -57 24 -66 1z"/>
</g>
</svg>
