<?xml version="1.0" standalone="no"?>
<!DOCTYPE svg PUBLIC "-//W3C//DTD SVG 20010904//EN"
 "http://www.w3.org/TR/2001/REC-SVG-20010904/DTD/svg10.dtd">
<svg version="1.0" xmlns="http://www.w3.org/2000/svg"
 width="400.000000pt" height="150.000000pt" viewBox="0 0 400.000000 150.000000"
 preserveAspectRatio="xMidYMid meet">

<g transform="translate(0.000000,150.000000) scale(0.100000,-0.100000)"
fill="currentColor" stroke="none">
<path d="M331 1164 c-20 -26 -21 -37 -21 -433 0 -352 2 -410 16 -429 l15 -22
348 0 c324 0 349 1 364 18 15 17 17 62 17 435 0 404 -1 418 -20 437 -19 19
-33 20 -359 20 l-340 0 -20 -26z m387 -126 l-3 -33 -160 0 c-146 0 -160 2
-163 18 -9 45 -1 47 168 47 l161 0 -3 -32z m272 -153 l0 -35 -297 2 -298 3 -3
33 -3 32 300 0 301 0 0 -35z m0 -150 l0 -35 -297 2 c-278 3 -298 4 -301 21 -9
47 -11 47 303 47 l295 0 0 -35z m-2 -153 l3 -32 -298 2 c-278 3 -298 4 -301
21 -9 48 -12 47 300 45 l293 -3 3 -33z m-148 -153 l0 -29 -222 2 -223 3 -3 27
c-4 34 -6 34 246 30 l202 -3 0 -30z"/>
<path d="M1318 854 c-15 -5 -18 -18 -18 -90 0 -83 0 -84 25 -84 20 0 25 5 25
25 0 23 3 25 48 25 55 0 82 20 82 61 0 46 -22 62 -86 65 -33 2 -67 0 -76 -2z
m110 -61 c3 -21 -1 -23 -37 -23 -37 0 -41 2 -41 26 0 23 3 25 38 22 30 -2 38
-7 40 -25z"/>
<path d="M1559 849 c-52 -20 -66 -103 -24 -144 44 -45 164 -27 179 27 18 70
-14 118 -84 124 -25 2 -57 -1 -71 -7z m100 -43 c7 -8 11 -30 9 -48 -3 -33 -4
-33 -53 -33 -49 0 -50 0 -53 33 -2 18 2 40 9 48 15 18 73 18 88 0z"/>
<path d="M1780 847 c-26 -13 -37 -51 -21 -75 4 -8 32 -17 60 -20 73 -10 68
-26 -7 -30 -53 -3 -63 -6 -60 -20 2 -13 16 -18 57 -20 73 -4 111 12 111 47 0
37 -17 51 -64 51 -47 0 -72 12 -61 30 5 8 25 11 61 8 46 -4 54 -2 54 13 0 29
-83 40 -130 16z"/>
<path d="M1950 841 c0 -15 8 -21 33 -23 l32 -3 3 -67 c3 -59 5 -68 22 -68 17
0 19 9 22 68 l3 67 33 3 c24 2 32 8 32 23 0 17 -8 19 -90 19 -82 0 -90 -2 -90
-19z"/>
<path d="M2273 850 c-56 -23 -69 -114 -22 -153 30 -25 142 -21 147 5 3 14 -7
17 -60 20 l-63 3 -3 33 c-5 49 12 64 72 61 56 -3 74 15 31 31 -32 12 -72 12
-102 0z"/>
<path d="M2444 850 c-19 -7 -21 -17 -21 -89 -1 -79 0 -81 23 -81 20 0 24 5 24
30 0 27 3 30 30 30 23 0 33 -7 45 -30 11 -21 23 -30 41 -30 l25 0 -18 30 c-14
25 -15 32 -5 39 23 14 18 72 -8 93 -24 19 -97 24 -136 8z m114 -52 c3 -15 -4
-18 -42 -18 -32 0 -46 4 -46 13 0 22 12 28 50 25 24 -2 36 -9 38 -20z"/>
<path d="M2647 853 c-4 -3 -7 -44 -7 -90 l0 -83 85 0 c78 0 85 2 85 20 0 18
-7 20 -60 20 -47 0 -60 3 -60 15 0 11 12 15 51 15 43 0 50 3 47 18 -2 13 -15
18 -51 20 -33 2 -47 7 -47 18 0 11 14 14 60 14 53 0 60 2 60 20 0 18 -7 20
-78 20 -43 0 -82 -3 -85 -7z"/>
<path d="M2880 780 c-22 -44 -40 -84 -40 -90 0 -19 39 -10 45 10 5 16 15 20
51 20 33 0 47 -5 56 -20 7 -11 21 -20 31 -20 22 0 19 11 -28 109 -47 97 -62
96 -115 -9z m80 10 c13 -25 5 -40 -20 -40 -10 0 -22 4 -25 10 -7 12 12 50 25
50 5 0 14 -9 20 -20z"/>
<path d="M3037 853 c-18 -17 -5 -33 28 -33 38 0 38 2 37 -82 -1 -55 0 -58 23
-58 24 0 25 2 25 70 l0 70 35 0 c28 0 35 4 35 20 0 18 -7 20 -88 20 -49 0 -92
-3 -95 -7z"/>
<path d="M3293 850 c-36 -14 -56 -55 -50 -97 9 -52 28 -66 96 -71 54 -4 62 -2
85 21 28 28 35 81 16 117 -18 33 -98 50 -147 30z m96 -44 c7 -8 11 -30 9 -48
-3 -33 -4 -33 -53 -33 -49 0 -50 0 -53 33 -2 18 2 40 9 48 15 18 73 18 88 0z"/>
<path d="M3502 849 c-22 -8 -23 -14 -21 -89 2 -77 3 -80 25 -80 20 0 24 5 24
30 0 27 3 30 30 30 23 0 33 -7 45 -30 11 -21 23 -30 41 -30 l25 0 -18 30 c-14
25 -15 32 -5 39 23 14 18 72 -8 93 -24 20 -97 24 -138 7z m116 -51 c3 -15 -4
-18 -42 -18 -32 0 -46 4 -46 13 0 22 12 28 50 25 24 -2 36 -9 38 -20z"/>
<path d="M1303 529 c-6 -6 -9 -18 -6 -25 4 -12 193 -14 1190 -14 l1184 0 -3
23 -3 22 -1175 3 c-861 1 -1179 -1 -1187 -9z"/>
</g>
</svg>
